<svg xmlns="http://www.w3.org/2000/svg" xmlns:xlink="http://www.w3.org/1999/xlink" width="740.675" height="473.949" xmlns:v="https://vecta.io/nano"><style><![CDATA[.B{fill:#ccc}.C{fill:#f2f2f2}.D{fill:#2f2e41}.E{fill:#e51015}.F{fill:#a0616a}.G{fill:#ffb8b8}.H{fill:#3f3d56}]]></style><g fill="#e6e6e6"><use xlink:href="#B"/><circle cx="130.23" cy="73.914" r="9.414"/><use xlink:href="#C"/><circle cx="124.618" cy="93.662" r="6.108"/><use xlink:href="#D"/><circle cx="98.683" cy="93.233" r="6.108"/></g><g class="C"><use xlink:href="#E"/><use xlink:href="#F"/></g><path d="M108.007 9.5h20v4h-20zm0 31h20v4h-20z" class="B"/><use xlink:href="#F" x="30" class="C"/><path d="M138.007 9.5h20v4h-20zm0 31h20v4h-20z" class="B"/><use xlink:href="#F" x="60" class="C"/><path d="M168.007 9.5h20v4h-20zm0 31h20v4h-20z" class="B"/><use xlink:href="#F" x="76" y="81" class="C"/><path d="M184.007 90.5h20v4h-20zm0 31h20v4h-20z" class="B"/><use xlink:href="#F" x="106" y="81" class="C"/><path d="M214.007 90.5h20v4h-20zm0 31h20v4h-20z" class="B"/><use xlink:href="#F" x="136" y="81" class="C"/><path d="M244.007 90.5h20v4h-20zm0 31h20v4h-20z" class="B"/><use xlink:href="#F" x="-3" y="162" class="C"/><path d="M105.007 171.5h20v4h-20zm0 31h20v4h-20z" class="B"/><use xlink:href="#F" x="27" y="162" class="C"/><path d="M135.007 171.5h20v4h-20zm0 31h20v4h-20z" class="B"/><use xlink:href="#F" x="57" y="162" class="C"/><path d="M165.007 171.5h20v4h-20zm0 31h20v4h-20z" class="B"/><use xlink:href="#F" x="90" class="C"/><path d="M198.007 9.5h20v4h-20zm0 31h20v4h-20z" class="B"/><use xlink:href="#F" x="120" class="C"/><path d="M228.007 9.5h20v4h-20zm0 31h20v4h-20z" class="B"/><use xlink:href="#F" x="150" class="C"/><path d="M258.007 9.5h20v4h-20zm0 31h20v4h-20z" class="B"/><use xlink:href="#F" x="180" class="C"/><g class="B"><path d="M288.007 9.5h20v4h-20zm0 31h20v4h-20zm60.941 19h-285a1 1 0 1 1 0-2h285a1 1 0 1 1 0 2zm0 81h-285a1 1 0 1 1 0-2h285a1 1 0 1 1 0 2zm0 81h-285a1 1 0 1 1 0-2h285a1 1 0 1 1 0 2z"/><use xlink:href="#G"/></g><path d="M319.563 460.906h12.26l5.832-47.288h-18.094l.002 47.288z" class="F"/><path d="M355.467 472.289l-38.531.002h0v-14.887h0l23.644-.001a14.89 14.89 0 0 1 14.888 14.886h0 0z" class="D"/><path d="M338.701 454.064l11.697-3.671-8.592-46.865-17.264 5.417 14.159 45.119z" class="F"/><g class="D"><path d="M376.366 454.175l-36.763 11.537h0l-4.457-14.204h0l22.559-7.079a14.89 14.89 0 0 1 18.661 9.746h0 0zm-45.867-21.876l-22.427-58.871c-5.031 1.182-47.227 10.519-61.359-4.528-4.843-5.157-5.788-12.629-2.808-22.208l8.248-10.364.256.014c3.118.164 76.435 4.273 81.461 26.389l14.247 63.615c.476 2.186-.721 4.392-2.814 5.184l-9.019 3.382a4.46 4.46 0 0 1-1.572.286 4.51 4.51 0 0 1-4.213-2.897z"/><path d="M317.499 439.299l-22.427-58.871c-5.032 1.182-47.227 10.518-61.359-4.528-4.843-5.157-5.788-12.629-2.808-22.208l8.248-10.364.256.014c3.118.164 76.435 4.273 81.461 26.389l14.247 63.615c.476 2.186-.721 4.392-2.814 5.184l-9.019 3.382a4.46 4.46 0 0 1-1.572.286c-1.869 0-3.544-1.152-4.213-2.897z"/></g><use xlink:href="#H" class="F"/><g class="E"><path d="M230.588 356.8c-1.376-.992-2.079-2.672-1.819-4.349 2.782-18.343-.419-44.619-3.595-63.433-1.318-7.741 1.108-15.648 6.54-21.318s13.229-8.431 21.019-7.444c3.342.441 6.653 1.094 9.913 1.954h0a24.6 24.6 0 0 1 18.582 24.468c-.475 18.154 3.211 40.806 4.818 49.701a4.52 4.52 0 0 1-.834 3.511 4.39 4.39 0 0 1-3.095 1.75c-17.808 1.817-37.012 10.502-46.875 15.517a4.5 4.5 0 0 1-2.05.501 4.43 4.43 0 0 1-2.606-.858z"/><use xlink:href="#I"/></g><use xlink:href="#H" x="-47" y="-2" class="F"/><use xlink:href="#I" x="-47" y="1" class="E"/><circle cx="250.906" cy="227.891" r="24.561" class="F"/><path d="M233.346 244.748c-.214-.625-.126-1.313.237-1.865s.961-.904 1.619-.954a4.93 4.93 0 0 1 3.476 1.715c.889 1.025 1.924 1.913 3.071 2.637 1.188.599 2.8.514 3.477-.628.636-1.072.2-2.508-.185-3.753-.98-3.169-1.528-6.455-1.63-9.77-.111-3.7.411-7.562 2.46-10.448 2.644-3.725 7.371-5.139 11.845-5.036s8.875 1.484 13.307 2.357c1.53.301 3.328.455 4.352-.73 1.088-1.261.688-3.301.226-5.004-1.201-4.417-2.475-8.985-5.265-12.552a18.9 18.9 0 0 0-12.061-6.79 28.94 28.94 0 0 0-13.462 1.528c-7.011 2.21-13.18 6.508-17.683 12.319-4.641 6.18-6.647 13.946-5.578 21.6 1.044 6.667 4.577 12.69 9.886 16.855z" class="D"/><use xlink:href="#B" x="28.055" y="174.453" class="H"/><circle cx="158.285" cy="248.368" r="9.414" class="E"/><use xlink:href="#C" x="28.055" y="174.453" class="H"/><circle cx="152.673" cy="268.116" r="6.108" class="E"/><use xlink:href="#D" x="28.055" y="174.454" class="H"/><circle cx="126.738" cy="267.687" r="6.108" class="E"/><g class="B"><use xlink:href="#E" x="28.055" y="174.454"/><rect x="289.07" y="305.482" width="86" height="7" rx="3.5"/><path d="M424.57 312.482h-89a6.51 6.51 0 0 1-6.5-6.5v-49a6.51 6.51 0 0 1 6.5-6.5h89a6.51 6.51 0 0 1 6.5 6.5v49a6.51 6.51 0 0 1-6.5 6.5z"/></g><circle cx="380.07" cy="281.482" r="6" fill="#fff"/><use xlink:href="#G" x="319" class="B"/><circle cx="593.257" cy="222.34" r="28" class="D"/><path d="M523.577 461.906h-12.26l-5.832-47.288h18.094l-.002 47.288z" class="G"/><path d="M502.56 458.403h23.644a0 0 0 0 1 0 0v14.887a0 0 0 0 1 0 0h-38.531a0 0 0 0 1 0 0h0a14.887 14.887 0 0 1 14.887-14.887z" class="D"/><path d="M504.439 455.064l-11.697-3.671 8.592-46.865 17.264 5.417-14.159 45.119z" class="G"/><g class="D"><path d="M485.436 445.429l22.559 7.079h0l-4.457 14.204h0l-36.763-11.537h0 0c1.182-3.767 3.812-6.91 7.312-8.738a14.88 14.88 0 0 1 11.349-1.008zm22.992-9.233a4.46 4.46 0 0 1-1.572-.286l-9.019-3.382c-2.093-.792-3.29-2.997-2.814-5.184l14.247-63.615c5.026-22.115 78.343-26.225 81.461-26.389l.256-.014 8.248 10.364c2.98 9.579 2.036 17.051-2.808 22.208-14.132 15.047-56.327 5.71-61.359 4.528l-22.427 58.871c-.669 1.745-2.344 2.897-4.213 2.898z"/><path d="M521.428 443.196a4.46 4.46 0 0 1-1.572-.286l-9.019-3.382c-2.093-.792-3.29-2.997-2.814-5.184l14.247-63.615c5.026-22.115 78.343-26.225 81.461-26.389l.256-.014 8.248 10.364c2.98 9.579 2.036 17.051-2.808 22.208-14.132 15.046-56.327 5.71-61.359 4.528l-22.427 58.871c-.669 1.745-2.344 2.897-4.213 2.898z"/></g><use xlink:href="#J" class="G"/><g class="E"><path d="M609.946 358.658a4.5 4.5 0 0 1-2.05-.501c-9.862-5.015-29.066-13.699-46.875-15.517a4.39 4.39 0 0 1-3.095-1.75 4.52 4.52 0 0 1-.834-3.511c1.607-8.895 5.293-31.547 4.818-49.701a24.6 24.6 0 0 1 18.582-24.468h0c3.26-.86 6.571-1.513 9.913-1.954 7.79-.987 15.587 1.775 21.019 7.444s7.859 13.577 6.54 21.318c-3.176 18.813-6.377 45.09-3.595 63.433.261 1.676-.442 3.357-1.819 4.349a4.43 4.43 0 0 1-2.606.858z"/><use xlink:href="#K"/></g><circle cx="592.234" cy="228.891" r="24.561" class="G"/><g class="D"><path d="M567.231 216.824a88.59 88.59 0 0 0 38.326 12.628l-4.04-4.841a29.69 29.69 0 0 0 9.171 1.821c3.13-.049 6.41-1.254 8.186-3.832a9.34 9.34 0 0 0 .625-8.63c-1.231-2.757-3.147-5.153-5.566-6.96a33.14 33.14 0 0 0-30.844-5.512c-3.565 1.065-6.758 3.113-9.212 5.909-2.328 2.872-6.811 5.432-5.619 8.932z"/><path d="M596.363 197.003c-7.747-7.856-17.121-13.918-27.463-17.759-6.639-2.459-13.865-3.979-20.805-2.582s-13.504 6.198-15.44 13.008c-1.583 5.568.052 11.564 2.509 16.806s5.738 10.102 7.725 15.54a35.47 35.47 0 0 1-35.689 47.562c6.819.914 13.105 4.119 19.771 5.825s14.533 1.59 19.486-3.185c5.241-5.052 5.346-13.267 5.092-20.542l-1.13-32.445c-.192-5.515-.356-11.208 1.633-16.356s6.716-9.656 12.235-9.609c4.183.036 7.884 2.569 11.239 5.068s6.904 5.165 11.071 5.536 8.923-2.711 8.611-6.882"/></g><path fill="#e6e6e6" d="M482.197 281.087l56.553 1.335 8.193 60.456-52.227 1.172-12.519-62.963z"/><use xlink:href="#J" x="47" y="-2" class="G"/><use xlink:href="#K" x="47" y="1" class="E"/><g class="H"><path d="M493.57 311.482h-398a6.5 6.5 0 1 0 0 13h11.5v141.5a6.5 6.5 0 1 0 13 0v-129.01l72.871 132.078a6.5 6.5 0 0 0 11.258-6.5l-76.176-138.068H476.07v.084L399.941 462.55a6.5 6.5 0 0 0 5.629 9.75 6.5 6.5 0 0 0 5.629-3.25l64.871-117.578v114.51a6.5 6.5 0 1 0 13 0V327.91l1.891-3.427h2.609a6.5 6.5 0 1 0 0-13z"/><path d="M739.485 473.949H1.191a1.19 1.19 0 0 1-1.187-1.191 1.19 1.19 0 0 1 1.187-1.191h738.294a1.19 1.19 0 1 1 0 2.381z"/></g><defs ><path id="B" d="M111.511 129.423a122.04 122.04 0 0 1 10.101-38.517q2.28-5.092 5.018-9.961c.19-.353.067-.793-.279-.995s-.79-.094-1.004.245a123.73 123.73 0 0 0-13.768 37.982q-1.034 5.584-1.554 11.246c-.088.952 1.399.946 1.486 0z"/><path id="C" d="M112.474 129.673c.801-8.632 3.015-17.074 6.553-24.988q1.479-3.304 3.255-6.462c.123-.229.043-.514-.181-.646s-.513-.061-.651.159a80.27 80.27 0 0 0-8.932 24.641q-.671 3.622-1.008 7.296c-.057.618.908.614.964 0z"/><path id="D" d="M111.257 129.096c-4.677-7.299-8.124-15.317-10.202-23.733q-.866-3.515-1.408-7.097c-.043-.256-.282-.432-.54-.398s-.442.267-.416.526a80.27 80.27 0 0 0 8.113 24.922q1.699 3.269 3.693 6.373c.335.522 1.093-.074.76-.593z"/><path id="E" d="M92.507 134.5v-12c.003-2.484 2.016-4.497 4.5-4.5h28c2.484.003 4.497 2.016 4.5 4.5v12c-.003 2.484-2.016 4.497-4.5 4.5h-28c-2.484-.003-4.497-2.016-4.5-4.5z"/><path id="F" d="M124.007 58h-12c-2.484-.003-4.497-2.016-4.5-4.5v-49c.003-2.484 2.016-4.497 4.5-4.5h12c2.484.003 4.497 2.016 4.5 4.5v49c-.003 2.484-2.016 4.497-4.5 4.5z"/><path id="G" d="M332.07 378.482c0-7.732-29.102-14-65-14s-65 6.268-65 14c0 4.955 11.964 9.306 30 11.794v76.706a6.5 6.5 0 1 0 13 0v-75.324c6.872.532 14.277.824 22 .824s15.128-.292 22-.824v75.324a6.5 6.5 0 1 0 13 0v-76.706c18.036-2.488 30-6.839 30-11.794z"/><path id="H" d="M347.807 298.176c-.331.443-.627.912-.885 1.402l-49.32 5.196-7.1-9.734-16.091 8.794 13.944 23.621 60.487-15.423c3.125 3.046 7.808 3.841 11.763 1.997s6.356-5.943 6.03-10.295-3.31-8.048-7.495-9.283-8.698.247-11.335 3.725z"/><path id="I" d="M278.659 309.488a4.47 4.47 0 0 1-2.474-2.397l-9.931-22.942a11.5 11.5 0 0 1 11.874-16 11.5 11.5 0 0 1 9.233 6.864l9.932 22.942c.984 2.281-.064 4.927-2.342 5.917l-12.848 5.562a4.47 4.47 0 0 1-3.444.055z"/><path id="J" d="M495.333 299.176c.331.443.627.912.885 1.402l49.32 5.196 7.1-9.734 16.091 8.794-13.944 23.621-60.487-15.423c-3.125 3.046-7.808 3.841-11.763 1.997s-6.356-5.943-6.03-10.295 3.31-8.048 7.495-9.283 8.698.247 11.335 3.725z"/><path id="K" d="M562.824 310.807c-.615-.001-1.223-.128-1.787-.373l-12.848-5.562c-2.278-.99-3.326-3.636-2.342-5.917l9.932-22.942a11.5 11.5 0 0 1 19.792-2.294 11.5 11.5 0 0 1 1.315 11.43l-9.931 22.942a4.51 4.51 0 0 1-4.131 2.716z"/></defs></svg>